Coordinates
version=1
nRows=11
nColumns=36
inDegrees=yes

Units are S.I. units (second, meters, Newtons, ...)
If the header above contains a line with 'inDegrees', this indicates whether rotational values are in degrees (yes) or radians (no).

endheader
time	pelvis_tilt	pelvis_list	pelvis_rotation	pelvis_tx	pelvis_ty	pelvis_tz	hip_flexion_r	hip_adduction_r	hip_rotation_r	knee_angle_r	knee_angle_r_beta	ankle_angle_r	subtalar_angle_r	mtp_angle_r	hip_flexion_l	hip_adduction_l	hip_rotation_l	knee_angle_l	knee_angle_l_beta	ankle_angle_l	subtalar_angle_l	mtp_angle_l	lumbar_extension	lumbar_bending	lumbar_rotation	arm_flex_r	arm_add_r	arm_rot_r	elbow_flex_r	pro_sup_r	arm_flex_l	arm_add_l	arm_rot_l	elbow_flex_l	pro_sup_l
      2.55000000	     -1.47765932	     -2.14182029	      1.54364703	      1.24924951	      1.21847642	     -0.30445177	     -3.64869818	     -1.69440107	    -13.70128299	      0.16774466	      0.00292770	    -12.61772155	     -4.21066668	     -7.49999987	     -4.16714746	     -7.94566917	    -14.15844732	      0.14973280	      0.00261333	     -8.55182141	      0.19984248	     -7.49999987	     -9.10317868	      1.88532783	     11.31877626	    -28.49103912	    -17.99760047	    -87.35092786	      0.62795204	    114.69768135	      5.08404383	    -16.55034819	     -6.01426785	      1.05715872	    109.64885996
      2.56666670	     -1.71698064	     -2.04204967	      1.86934432	      1.24564821	      1.23026079	     -0.30140801	     -3.66224100	     -1.69945147	    -13.98752914	      0.17444840	      0.00304470	    -13.09576714	     -3.98470081	     -7.49999987	     -3.86059911	     -7.46699970	    -14.26593086	      0.16088190	      0.00280792	     -9.98913639	      0.28010232	     -7.49999987	     -8.63445168	      1.54443411	      9.81059192	    -26.55118784	    -19.01195749	    -91.29155768	      0.60818256	    114.47310520	      4.22492899	    -16.20402332	     -9.71572778	      1.04893942	    109.14042894
      2.58333330	     -1.82946876	     -1.96153317	      2.18262067	      1.25145014	      1.23726564	     -0.29895952	     -3.85106553	     -1.63789831	    -14.76420188	      0.17503771	      0.00305498	    -13.83383819	     -3.72168056	     -7.49999987	     -3.79957053	     -6.99209532	    -14.62074816	      0.16247433	      0.00283571	    -11.33418026	     -0.03361630	     -7.49999987	     -8.28179524	      1.39154411	      9.09736077	    -25.15495289	    -19.46301309	   -104.75722667	      0.62829160	    113.70018862	      3.52134602	    -16.10302688	    -13.64401744	      1.02043858	    109.87381002
      2.60000000	     -2.24568234	     -1.87329125	      2.46900546	      1.24164251	      1.25221847	     -0.29901648	     -3.42496073	     -1.57407496	    -15.13203868	      0.18824109	      0.00328543	    -14.43543669	     -3.56273323	     -7.49999987	     -3.04950342	     -6.63989330	    -14.81188841	      0.16754742	      0.00292425	    -12.14092503	     -0.09777428	     -7.49999987	     -7.98843977	      1.06573120	      8.25080836	    -23.11707992	    -19.77954904	   -109.80656821	      0.65184862	    112.99940946	      2.80247407	    -15.98174477	    -17.95181818	      0.98762900	    110.15953340
      2.61666670	     -1.93671327	     -1.87738415	      2.77894844	      1.23602605	      1.25669375	     -0.29738270	     -3.58524562	     -1.40669124	    -15.36860108	      0.20962168	      0.00365859	    -14.79767855	     -3.53462966	     -7.49999987	     -3.00232256	     -6.41468997	    -15.01217318	      0.17562914	      0.00306531	    -12.81539841	     -0.57150394	     -7.49999987	     -6.60095844	      0.50643073	     -2.88886947	      3.60086291	    -36.22401915	   -220.49166556	     50.71380926	      8.45722786	     -5.16223607	    -15.75145903	    -31.29713905	      1.18131369	    110.11183336
      2.63333330	     -2.24614357	     -1.77618764	      3.19066366	      1.22758996	      1.25847619	     -0.29724680	     -2.94189594	     -1.33336271	    -15.49066996	      0.25858716	      0.00451320	    -15.14202570	     -3.64124468	     -7.49999987	     -2.15904476	     -6.18566107	    -15.12520659	      0.20037544	      0.00349721	    -13.74375335	     -0.99469445	     -7.49999987	     -7.03894782	      0.26715628	     -3.10535580	      5.44958465	    -35.33604261	   -220.49616409	     49.35575741	      8.89569402	     -5.38507400	    -15.70178880	    -31.38217767	      1.16509636	    110.37566110
      2.65000000	     -2.64061458	     -1.74230089	      3.65541493	      1.21909384	      1.25964412	     -0.29201805	     -2.06597391	     -1.14411451	    -15.77090313	      0.33436771	      0.00583582	    -15.31544170	     -3.56416219	     -7.49999987	     -1.09080921	     -6.15572644	    -15.12513152	      0.23369297	      0.00407871	    -14.66541287	     -1.40264188	     -7.49999987	     -7.67743425	      0.03894905	     -3.21901799	      6.97593428	    -34.38826733	   -221.49720293	     47.58114949	      9.09993476	     -5.41720173	    -15.80095013	    -35.21708262	      1.17777886	    111.40532940
      2.66666670	     -3.07015611	     -1.76420518	      3.98402376	      1.22012928	      1.25635108	     -0.29249284	     -1.22621702	     -0.97329764	    -15.93320778	      0.41216462	      0.00719363	    -15.42041896	     -3.57034296	     -7.49999987	     -0.13803818	     -6.18706748	    -15.37195527	      0.25928308	      0.00452534	    -15.37248918	     -1.72766070	     -7.49999987	     -7.96883794	     -0.12791903	     -3.21774800	      8.72364605	    -33.52900365	   -221.45259845	     46.17223412	      9.96537582	     -5.99742960	    -16.03537442	    -34.99116338	      1.19770467	    111.93870647
      2.68333330	     -3.75675037	     -1.87706001	      4.15598419	      1.22108314	      1.25403614	     -0.29291796	     -0.11833199	     -0.79135495	    -16.18627599	      0.46433581	      0.00810419	    -15.13506451	     -3.21384420	     -7.49999987	      0.96706359	     -6.34440920	    -15.63712305	      0.26348308	      0.00459865	    -15.79257240	     -1.84431402	     -7.49999987	     -7.94846188	     -0.19449205	     -3.39634824	     10.28323790	    -32.85218432	   -221.13025387	     45.21337255	     11.21463939	     -7.27655908	    -16.12221845	    -36.36334033	      1.24769643	    112.63309346
      2.70000000	     -4.27812973	     -1.91698453	      4.39045643	      1.22090089	      1.24269978	     -0.29328087	      0.77978142	     -0.73552576	    -16.59448237	      0.49898124	      0.00870887	    -15.01567620	     -2.99192281	     -7.49999987	      1.77765972	     -6.45555284	    -15.84428198	      0.26357500	      0.00460025	    -15.85203099	     -1.75421788	     -7.49999987	     -7.85865716	     -0.49675271	     -3.45582714	     11.30613778	    -32.04032314	   -220.57148414	     43.75782565	     13.77566966	     -9.05989481	    -16.00943703	    -34.56112389	      1.41754923	    112.71361521
      2.71666670	     -4.96721289	     -2.00116221	      4.74331564	      1.21708855	      1.23074617	     -0.29104319	      2.06742066	     -0.70569577	    -17.07461636	      0.60443645	      0.01054941	    -14.24486734	     -2.64370895	     -7.49999987	      2.80984553	     -6.74152979	    -15.64722553	      0.28284791	      0.00493663	    -15.07266240	     -1.51175823	     -7.49999987	     -7.99507902	     -0.59620051	     -3.59598092	     11.43079428	    -31.57694805	   -221.51450556	     42.09018465	     15.84876714	    -11.02064833	    -15.98227992	    -31.70910316	      1.78006371	    112.50996540
